<?xml version="1.0" encoding="utf-8"?>
<!-- Generator: Adobe Illustrator 19.0.1, SVG Export Plug-In . SVG Version: 6.00 Build 0)  -->
<svg version="1.1" id="Layer_1" xmlns:svg="http://www.w3.org/2000/svg" xmlns:rdf="http://www.w3.org/1999/02/22-rdf-syntax-ns#"
	 xmlns="http://www.w3.org/2000/svg" xmlns:xlink="http://www.w3.org/1999/xlink" x="0px" y="0px" viewBox="-250.5 88.1 463 185.5"
	 style="enable-background:new -250.5 88.1 463 185.5;" xml:space="preserve">
<style type="text/css">
	.st0{fill:#E53238;}
	.st1{fill:#0064D2;}
	.st2{fill:#F5AF02;}
	.st3{fill:#86B817;}
</style>
<g>
	<path id="e" class="st0" d="M-182.1,131.2c-31,0-56.9,13.2-56.9,52.9c0,31.5,17.4,51.3,57.7,51.3c47.4,0,50.5-31.3,50.5-31.3h-23
		c0,0-4.9,16.8-28.9,16.8c-19.5,0-33.6-13.2-33.6-31.7h87.9v-11.6C-128.4,159.3-140,131.2-182.1,131.2L-182.1,131.2z M-182.9,146
		c18.6,0,31.3,11.4,31.3,28.4h-64.1C-215.8,156.3-199.2,146-182.9,146z"/>
	<path id="b" class="st1" d="M-128.4,92.7v122.7c0,7-0.5,16.7-0.5,16.7h21.9c0,0,0.8-7,0.8-13.4c0,0,10.8,16.9,40.3,16.9
		c31,0,52.1-21.5,52.1-52.4c0-28.7-19.4-51.8-52-51.8c-30.6,0-40.1,16.5-40.1,16.5V92.7L-128.4,92.7z M-71.5,146.6
		c21.1,0,34.5,15.6,34.5,36.6c0,22.5-15.5,37.2-34.3,37.2c-22.5,0-34.6-17.6-34.6-37C-106,165.3-95.1,146.6-71.5,146.6z"/>
	<path id="a" class="st2" d="M40.7,131.2C-6,131.2-9,156.7-9,160.8h23.2c0,0,1.2-14.9,24.8-14.9c15.4,0,27.2,7,27.2,20.5v4.8H39
		c-36.2,0-55.3,10.6-55.3,32.1c0,21.1,17.7,32.6,41.5,32.6c32.5,0,43-18,43-18c0,7.2,0.6,14.2,0.6,14.2h20.7c0,0-0.8-8.7-0.8-14.3
		v-48.3C88.7,137.8,63.2,131.2,40.7,131.2L40.7,131.2z M66.3,185.6v6.4c0,8.4-5.2,29.1-35.5,29.1c-16.6,0-23.8-8.3-23.8-17.9
		C7,185.8,31,185.6,66.3,185.6L66.3,185.6z"/>
	<path id="y" class="st3" d="M76.2,135.2h26.1l37.5,75.2l37.4-75.2H201L132.8,269H108l19.7-37.3L76.2,135.2z"/>
</g>
</svg>
