<?xml version="1.0" encoding="utf-8"?>
<!-- Generator: Adobe Illustrator 22.0.1, SVG Export Plug-In . SVG Version: 6.00 Build 0)  -->
<svg version="1.1" id="Layer_1" xmlns="http://www.w3.org/2000/svg" xmlns:xlink="http://www.w3.org/1999/xlink" x="0px" y="0px"
	 viewBox="0 0 20 20" style="enable-background:new 0 0 20 20;" xml:space="preserve">
<style type="text/css">
	.st0{fill:#FFFFFF;}
</style>
<rect x="3.3" y="4.2" width="12.7" height="12"/>
<title>instagram-with-circle</title>
<path class="st0" d="M13,10c0,1.7-1.3,3-3,3s-3-1.3-3-3c0-0.2,0-0.3,0-0.5H6v4C6,13.8,6.2,14,6.5,14h7c0.3,0,0.5-0.2,0.5-0.5v-4h-1
	C13,9.7,13,9.8,13,10z M10,12c1.1,0,2-0.9,2-2s-0.9-2-2-2s-2,0.9-2,2S8.9,12,10,12z M12.4,7.9h1.2c0.2,0,0.3-0.1,0.3-0.3V6.4
	c0-0.2-0.1-0.3-0.3-0.3h-1.2c-0.2,0-0.3,0.1-0.3,0.3v1.2C12.1,7.8,12.2,7.9,12.4,7.9z M10,0.4c-5.3,0-9.6,4.3-9.6,9.6
	s4.3,9.6,9.6,9.6s9.6-4.3,9.6-9.6S15.3,0.4,10,0.4z M15,13.9c0,0.6-0.5,1.1-1.1,1.1H6.1C5.5,15,5,14.5,5,13.9V6.1C5,5.5,5.5,5,6.1,5
	h7.8C14.5,5,15,5.5,15,6.1V13.9z"/>
</svg>
