<?xml version="1.0" encoding="utf-8"?>
<!-- Generator: Adobe Illustrator 22.0.1, SVG Export Plug-In . SVG Version: 6.00 Build 0)  -->
<svg version="1.1" id="Layer_1" xmlns="http://www.w3.org/2000/svg" xmlns:xlink="http://www.w3.org/1999/xlink" x="0px" y="0px"
	 viewBox="0 0 24 28" style="enable-background:new 0 0 24 28;" xml:space="preserve">
<style type="text/css">
	.st0{fill:#FFFFFF;}
</style>
<polygon points="5.2,6.3 3,18.8 9.6,23.2 18.4,21.4 21.4,16.8 19.1,9.1 15.3,5.7 10.4,4.9 "/>
<title>snapchat</title>
<path class="st0" d="M20,17.9c0-0.2-0.1-0.4-0.3-0.4c-1.4-0.3-2.5-1.3-3.1-2.6c0-0.1-0.1-0.2-0.1-0.4c0-0.7,2-0.6,2-1.6
	c0-0.4-0.5-0.7-0.9-0.7c-0.4,0-0.6,0.2-1,0.2c-0.1,0-0.1,0-0.2,0c0-0.6,0.1-1.2,0.1-1.8c0-0.5,0-1.3-0.3-1.8c-0.8-1.6-2.2-2.6-4-2.6
	c-2,0-3.4,0.7-4.3,2.6c-0.2,0.5-0.3,1.2-0.3,1.8c0,0.6,0,1.2,0.1,1.8c-0.1,0-0.1,0-0.2,0c-0.4,0-0.6-0.2-1-0.2
	c-0.4,0-0.9,0.2-0.9,0.7c0,1,2,0.8,2,1.5c0,0.1-0.1,0.3-0.1,0.4c-0.6,1.3-1.7,2.3-3.1,2.6c-0.2,0-0.3,0.2-0.3,0.4
	c0,0.7,1.7,1,2.1,1.1c0.1,0.4,0.1,1,0.6,1c0.4,0,0.8-0.1,1.2-0.1c1.6,0,2.1,1.5,4,1.5c2,0,2.4-1.5,4-1.5c0.4,0,0.8,0.1,1.2,0.1
	c0.5,0,0.5-0.7,0.6-1C18.3,18.9,20,18.7,20,17.9L20,17.9z M24,14c0,6.6-5.4,12-12,12S0,20.6,0,14S5.4,2,12,2S24,7.4,24,14z"/>
</svg>
