<?xml version="1.0" encoding="utf-8"?>
<!-- Generator: Adobe Illustrator 22.0.1, SVG Export Plug-In . SVG Version: 6.00 Build 0)  -->
<svg version="1.1" id="Layer_1" xmlns="http://www.w3.org/2000/svg" xmlns:xlink="http://www.w3.org/1999/xlink" x="0px" y="0px"
	 viewBox="0 0 20 20" style="enable-background:new 0 0 20 20;" xml:space="preserve">
<style type="text/css">
	.st0{fill:#FFFFFF;}
</style>
<g>
	<polygon points="4.6,3.9 2.8,13.9 8.1,17.4 15.1,15.9 17.5,12.2 15.6,6.1 12.6,3.3 8.8,2.7 	"/>
	<path class="st0" d="M16.4,13.2c0-0.2-0.1-0.3-0.3-0.3c-1.1-0.3-2-1-2.5-2.1c0-0.1-0.1-0.2-0.1-0.3c0-0.6,1.6-0.4,1.6-1.3
		c0-0.3-0.4-0.6-0.7-0.6c-0.3,0-0.5,0.2-0.8,0.2c-0.1,0-0.1,0-0.1,0c0-0.5,0.1-1,0.1-1.4c0-0.4,0-1-0.2-1.4
		c-0.6-1.3-1.8-2.1-3.2-2.1c-1.6,0-2.7,0.6-3.4,2.1c-0.2,0.4-0.2,1-0.2,1.4c0,0.5,0,1,0.1,1.4c-0.1,0-0.1,0-0.2,0
		c-0.3,0-0.5-0.2-0.8-0.2c-0.3,0-0.7,0.2-0.7,0.6c0,0.8,1.6,0.7,1.6,1.2c0,0.1-0.1,0.2-0.1,0.3c-0.5,1.1-1.3,1.8-2.5,2.1
		c-0.2,0-0.3,0.2-0.3,0.3c0,0.6,1.3,0.8,1.7,0.8c0.1,0.3,0.1,0.8,0.5,0.8c0.3,0,0.6-0.1,1-0.1c1.3,0,1.7,1.2,3.2,1.2
		c1.6,0,1.9-1.2,3.2-1.2c0.3,0,0.6,0.1,1,0.1c0.4,0,0.4-0.5,0.5-0.8C15.1,13.9,16.4,13.7,16.4,13.2L16.4,13.2z M19.6,10
		c0,5.3-4.3,9.6-9.6,9.6S0.4,15.3,0.4,10S4.7,0.4,10,0.4S19.6,4.7,19.6,10z"/>
</g>
</svg>
