<svg xmlns="http://www.w3.org/2000/svg" viewBox="0 0 74.88 74.88"><defs><style>.cls-1{fill:#fff;}</style></defs><title>white-logo</title><g id="Layer_2" data-name="Layer 2"><g id="Layer_1-2" data-name="Layer 1"><path class="cls-1" d="M21.08,62.93h-.53v2h.61a2.55,2.55,0,0,0,1.07-.15.94.94,0,0,0,.48-.81.91.91,0,0,0-.62-.91,3.4,3.4,0,0,0-1-.1m1-2a1.69,1.69,0,0,0-.92-.14h-.58v1.69h.54a1.91,1.91,0,0,0,.95-.15.81.81,0,0,0,.41-.7.88.88,0,0,0-.4-.7M17.54,38c0,.56,0,1.06,0,1.32v-.55a1.6,1.6,0,0,0,0-.38,1.7,1.7,0,0,1,0-.39h-.06m-.17-.28a2.72,2.72,0,0,0,0,.28h.18c0-1.06,0-2.26,0-2.19s0,.26,0,.39l-.06.39a2.26,2.26,0,0,0,0,.35,2,2,0,0,0,0,.42,1.06,1.06,0,0,1,0,.36M40.13,21.06a.6.6,0,0,0,.13-.52,4.48,4.48,0,0,0-.42-.85,1.21,1.21,0,0,0-.8-.53c-.28,0-.56-.09-.83-.15l-.85-.14a2.53,2.53,0,0,0-1,.06,3.2,3.2,0,0,0-.86.39v3.87l.81.11.77.08a.66.66,0,0,0,.33,0,6,6,0,0,1,.56-.29,5.45,5.45,0,0,0,.53-.29,5,5,0,0,0,.86-.79c.24-.29.49-.6.72-.92M61.07,48.55a5,5,0,0,0,.09-.77A10.38,10.38,0,0,0,61,46a7.65,7.65,0,0,0-.37-1.35,4.05,4.05,0,0,0-.45-.91,1.61,1.61,0,0,0-.41-.46,2.59,2.59,0,0,0-.33-.19l-.35-.17-.14,0-.3,0-.3,0c-.12,0-.18,0-.18.11v.36c0,.24,0,.48.05.71s0,.46,0,.7,0,.44,0,.65,0,.42,0,.64,0,.26,0,.51,0,.53,0,.86,0,.69,0,1.07,0,.73,0,1.07,0,.62,0,.87,0,.42,0,.51c0,.27,0,.55,0,.84s0,.56,0,.84a.52.52,0,0,0,0,.11,1.37,1.37,0,0,0,.5,0,2.65,2.65,0,0,0,.42-.18,2.78,2.78,0,0,0,.41-.32,3.7,3.7,0,0,0,.33-.36,4.5,4.5,0,0,0,.27-.44c.09-.19.19-.37.28-.55a4,4,0,0,0,.22-.49,1.08,1.08,0,0,0,.09-.26s0-.14.09-.29.1-.33.16-.53a5.92,5.92,0,0,0,.15-.69m3.07-2.2a9.45,9.45,0,0,1,.12,1.57,6.69,6.69,0,0,1-.17,1.59,9,9,0,0,1-.38,1.31,7.48,7.48,0,0,1-.43,1c-.15.28-.26.49-.32.63a2.44,2.44,0,0,1-.34.61c-.14.19-.3.38-.46.57L62,53.8c-.06.06-.11.13-.16.19a3.09,3.09,0,0,1-.56.52,4,4,0,0,1-.69.42,5.35,5.35,0,0,1-.77.28l-.82.22a2.25,2.25,0,0,1-.62.08l-.65,0a.93.93,0,0,0-.34.05l-.25.06a.39.39,0,0,1-.26,0,.15.15,0,0,0-.16,0,1.14,1.14,0,0,1-.45,0,3.4,3.4,0,0,0-.45,0,.42.42,0,0,1-.21-.08.71.71,0,0,1-.1-.14,1.61,1.61,0,0,1-.2-.7c0-.24,0-.47,0-.71s0-.76,0-1.14,0-.75,0-1.13v-5c0-.47,0-.89,0-1.25s0-.65,0-.83c0-.42,0-.84-.05-1.25s0-.83-.08-1.26a6.18,6.18,0,0,0-.07-.62c0-.21,0-.42-.06-.65a1.05,1.05,0,0,1,.11-.45c0-.14.17-.22.38-.22l.35,0,.32,0c.21-.1.4-.19.58-.26a.45.45,0,0,1,.2,0l.95.08,1,.09a.51.51,0,0,1,.17,0l.18.07,1,.45a8.65,8.65,0,0,1,.93.54,8.05,8.05,0,0,1,1.26,1.12,5.56,5.56,0,0,1,.89,1.3c.06.14.14.33.26.59a5.7,5.7,0,0,1,.34,1c.1.37.2.8.28,1.28m-.38-11.57a2.29,2.29,0,0,1-.68,1c-.35.29-.69.58-1,.85a4.72,4.72,0,0,1-1.16.66,2.19,2.19,0,0,1-.55.17l-.55.11-.21,0-.21,0a.6.6,0,0,1-.23,0l-.06,0H59a1.83,1.83,0,0,1-.79.21c-.36,0-.65,0-.89,0l-.76,0a2.52,2.52,0,0,1-.82-.19,1.71,1.71,0,0,1-.71-.12,1.37,1.37,0,0,1-.32-.16h0c-.72.06-1.44.12-2.17.21a19.63,19.63,0,0,1-2.53.11,3,3,0,0,0-.49.06l-.74,0-1.08,0-1,0h-.5a.3.3,0,0,0-.11,0l-.12,0a2.55,2.55,0,0,0-.33-.11l-.37-.08a1.07,1.07,0,0,1-.47-.16.8.8,0,0,1-.18-.45c0-.18-.07-.36-.1-.55a5.63,5.63,0,0,1,0-.58v-1c0-.33,0-.67,0-1,0-.8,0-1.58.07-2.35s0-1.56.06-2.36a3.84,3.84,0,0,0,0-.59c0-.21,0-.41,0-.6l-.06-2.5c0-.82,0-1.66-.07-2.49,0-.63,0-1.26,0-1.89s0-1.26,0-1.89c0-.36,0-.74,0-1.12s0-.77,0-1.13a4.26,4.26,0,0,1,0-.63,1.55,1.55,0,0,1,.19-.6.55.55,0,0,1,.23-.29.48.48,0,0,1,.38,0l1.45.31a5.82,5.82,0,0,1,1.39.46,1.49,1.49,0,0,1,1,1.49L49.15,19c0,.42-.06.84-.1,1.27,0,.13,0,.27,0,.41a1.07,1.07,0,0,0,0,.4,10.46,10.46,0,0,1,.15,1.47A14.34,14.34,0,0,1,49.15,24a6.79,6.79,0,0,1,0,.78c0,.25,0,.51,0,.77a3.4,3.4,0,0,0,0,.45,2.28,2.28,0,0,1,0,.45c0,.28,0,.56,0,.84a7.85,7.85,0,0,1,0,.84c0,.94-.1,1.88-.17,2.8s-.12,1.87-.19,2.84a.14.14,0,0,0,0,.06.28.28,0,0,1,0,.1H49a.82.82,0,0,0,.21,0l2-.13h.13l-.05-.14c-.06-.22-.11-.46-.16-.71a6.38,6.38,0,0,1-.05-1,3.18,3.18,0,0,1,.28-1.19,3,3,0,0,1,.45-.82,3.94,3.94,0,0,1,.26-.4c.08-.13.18-.26.29-.41a1.76,1.76,0,0,1,.14-.23l.18-.24a0,0,0,0,1,0,0,1,1,0,0,1,.26-.32l0,0a2.07,2.07,0,0,0,.24-.2l.25-.23a.52.52,0,0,1,.38-.19l.36,0a.75.75,0,0,1,.26,0,1.85,1.85,0,0,1,.48.25l.71.47.32.23a1.15,1.15,0,0,0,.23.14,1,1,0,0,1,.53.43,2,2,0,0,1,.21.51.33.33,0,0,1,0,.1.09.09,0,0,0,0,.06,1,1,0,0,1,.1.38,1,1,0,0,1-.13.56l-.06.06a3,3,0,0,0-.5.85,1,1,0,0,0,.08,1l.06.06A1.75,1.75,0,0,0,57,33a1.32,1.32,0,0,0,.87.2,4.78,4.78,0,0,0,1-.15.59.59,0,0,0,.36-.35A2.24,2.24,0,0,0,59,31.32a7.56,7.56,0,0,0-.85-1.65l-.34-.48c-.12-.16-.23-.32-.34-.49l-.35-.51a6.49,6.49,0,0,1-.36-.55c-.17-.25-.34-.51-.5-.77l-.5-.8c-.13-.17-.25-.34-.37-.53s-.24-.38-.37-.56-.22-.34-.32-.51-.24-.34-.39-.53a7.21,7.21,0,0,1-.74-1.27,5.52,5.52,0,0,1-.42-1.36,4.62,4.62,0,0,1,1.74-4.64,9.4,9.4,0,0,1,1.87-1.12,1.15,1.15,0,0,0,.29-.13c.45-.17.91-.33,1.39-.48A5.31,5.31,0,0,1,60,14.67h0a.69.69,0,0,0,.25,0l.15,0h.14a1.25,1.25,0,0,1,1,.59,5.45,5.45,0,0,1,.54.79c.18.29.36.61.55,1a1.49,1.49,0,0,1,.07,1.63,1.93,1.93,0,0,1-1.55,1.06l-.32,0a1.84,1.84,0,0,0-.33,0l-.42,0a2.65,2.65,0,0,0-.38.05,2.25,2.25,0,0,0-.62.2,4.58,4.58,0,0,0-.61.36s-.07.06-.09.06a.29.29,0,0,1-.2.16,1,1,0,0,0-.48.56.77.77,0,0,0,.09.63c.26.42.53.84.81,1.27s.59.88.94,1.36c.17.27.35.54.54.8s.38.52.55.77.36.53.55.79l.58.8c.32.48.64,1,1,1.51a9.38,9.38,0,0,1,.79,1.66,11.36,11.36,0,0,1,.49,1.95,4,4,0,0,1-.29,2.12m-20,5.12,1.08.27a.41.41,0,0,1,.25.12.71.71,0,0,1,0,.3c0,.16-.09.32-.13.46a4.57,4.57,0,0,0-.1.46,3.13,3.13,0,0,0,0,.73.7.7,0,0,1-.18.62.76.76,0,0,1-.63.17H44l-.08,0a4.05,4.05,0,0,1-.5.12,2.27,2.27,0,0,1-.52,0c-.14,0-.21.06-.21.22a1.1,1.1,0,0,0,0,.18v.18c0,.19,0,.38,0,.56a2.62,2.62,0,0,0,0,.56c0,.3,0,.59,0,.87s0,.57,0,.85,0,.62,0,.93,0,.61,0,.9V52c0,.23,0,.46,0,.69a5.15,5.15,0,0,1,0,.68c0,.12,0,.24,0,.36s0,.23-.07.35-.06.19-.08.28l-.06.28a.57.57,0,0,1-.42.56l-.57.25a3.16,3.16,0,0,1-.59.2,1.47,1.47,0,0,1-.47,0,3.85,3.85,0,0,1-.49-.07.29.29,0,0,1-.15-.11.48.48,0,0,1-.1-.15.15.15,0,0,0-.07-.14s-.05-.08,0-.16a.23.23,0,0,0,0-.14v-.15c0-.46,0-.92,0-1.38s0-.93,0-1.39l0-1.78c0-.58,0-1.18-.06-1.77q0-.59,0-1.17c0-.38,0-.77,0-1.16a7.85,7.85,0,0,1,0-.84c0-.27,0-.56,0-.86s0-.51,0-.78,0-.53,0-.78-.13-.36-.38-.36a2.48,2.48,0,0,1-.68-.09l-.66-.18a.7.7,0,0,1-.49-.26,1.69,1.69,0,0,1-.3-.48,3,3,0,0,1-.16-.59,6,6,0,0,1-.1-.61.37.37,0,0,1,0-.31.61.61,0,0,1,.3-.12,2.18,2.18,0,0,1,.43-.05,1.13,1.13,0,0,1,.4.05h.07l1.45.07c.49,0,1,0,1.48,0a4.21,4.21,0,0,1,.71,0l.72,0h1l-.14,0-.13,0v0h.76l-.11-.09Zm-.38-18.13a3.71,3.71,0,0,1-.1.9,4,4,0,0,1-.23.89,2.87,2.87,0,0,1-.45.82l-.27.32-.24.32a5.34,5.34,0,0,1-1.21,1.21,7.64,7.64,0,0,1-1.5.82.7.7,0,0,1-.19.1.89.89,0,0,0-.23.1,11.22,11.22,0,0,0,.87,2.16c.26.51.49,1,.71,1.54S41,32,41.2,32.53s.37.95.54,1.42.36.95.55,1.42c.09.19.18.38.28.56s.2.37.3.57a.67.67,0,0,1-.16,1A3.9,3.9,0,0,1,42,38a2.14,2.14,0,0,1-.92.26l-1.84.1a.58.58,0,0,1-.49-.29c-.3-.56-.58-1.13-.85-1.71s-.52-1.17-.76-1.77-.4-1-.61-1.45-.43-.95-.65-1.42a2.74,2.74,0,0,0-.21-.42,3.63,3.63,0,0,0-.27-.42L35.3,31c0,.84,0,1.67,0,2.51s0,1.68,0,2.52a2.91,2.91,0,0,1,0,.4c0,.14,0,.27-.07.4a.68.68,0,0,1-.22.39,1.18,1.18,0,0,1-.39.19l-.16.08-.13.08-.13,0-.13,0h-.16a.83.83,0,0,1-.71.22,2.82,2.82,0,0,0-.71,0,.73.73,0,0,1-.22,0,.8.8,0,0,0-.23,0,1.06,1.06,0,0,1-.61-.24,1.11,1.11,0,0,1-.2-.63c0-.78,0-1.55,0-2.32s0-1.55,0-2.32v-3.9c0-1.49,0-2.95,0-4.4s0-2.92,0-4.4c0-.37,0-.74,0-1.11s0-.75,0-1.11a2.45,2.45,0,0,1,.16-.7,5,5,0,0,1,.32-.66.52.52,0,0,1,.36-.22,1.09,1.09,0,0,1,.26-.05.38.38,0,0,1,.25.05,2.08,2.08,0,0,0,.86,0,6.59,6.59,0,0,0,.82-.21,8.82,8.82,0,0,1,5.26.26,5.45,5.45,0,0,1,2,1.24,4.61,4.61,0,0,1,1.19,2.08c.19.58.36,1.16.49,1.74a2.3,2.3,0,0,1,0,.84M30.86,40.23a1.06,1.06,0,0,1,.47.92,6.55,6.55,0,0,1,0,.89l-.12.9c0,.3-.08.58-.13.86a3.47,3.47,0,0,0-.05.86.53.53,0,0,1,0,.12.38.38,0,0,0,0,.1l-.09.88-.09.84-.09,1.08-.09,1.07c0,.21,0,.41,0,.62s0,.4,0,.61c0,.37-.05.74-.07,1.11s-.05.73-.08,1.1c0,.09,0,.27,0,.52s0,.52-.06.82,0,.55-.06.8a3.91,3.91,0,0,1,0,.46c0,.15-.07.23-.15.26a1,1,0,0,1-.37,0,.37.37,0,0,0-.15,0l-.33.2-.32.2a1,1,0,0,0-.19.14l-.19.13s-.08,0-.27.09l-.51.09c-.17,0-.27,0-.32,0a.94.94,0,0,1-.16-.3q-.11-.25-.24-.51l-.25-.5-.58-1.11c-.19-.36-.37-.74-.54-1.13a8.55,8.55,0,0,1-.38-.95c-.1-.32-.21-.64-.33-1l-.27-.82a7.61,7.61,0,0,0-.31-.79c0,.11,0,.21-.05.31s0,.21,0,.32-.06.42-.08.63-.05.43-.08.64a4.44,4.44,0,0,0-.05.62c0,.2,0,.4-.06.61a2.63,2.63,0,0,1,0,.28c0,.17-.05.37-.08.6s-.07.47-.11.71,0,.42,0,.56,0,.21,0,.37a1.6,1.6,0,0,1,0,.44,1.08,1.08,0,0,1-.14.36.31.31,0,0,1-.29.15h-.94l-.44,0h-.27a.74.74,0,0,1-.76-.76c0-.34,0-.73,0-1.16s0-.82,0-1.16,0-.51,0-.77,0-.52.05-.77c0-.41.06-.81.1-1.21s.07-.81.1-1.23.05-.69.05-1,0-.68.06-1c0-.62.38-4.7.42-4.83a2.13,2.13,0,0,1,.14-.38c.06-.12.34-.2.46-.25a.69.69,0,0,1,.38,0c.28,0,.57.09.86.12a16.71,16.71,0,0,1,2,.24c.65.22,1.06,3.72,1.21,4.24s.28,1.5.43,2c.09.33.19.65.28,1s.21.65.33,1l0-.37,0-.39c0-.23,0-.45,0-.67s0-.45.05-.67c0-.38.06-.75.08-1.12s0-.75.08-1.12.07-.87.11-1.32.08-.89.11-1.32c0-.18,0-.36.05-.55s0-.37.07-.57a1.62,1.62,0,0,1,0-.22.81.81,0,0,0,0-.22.93.93,0,0,1,0-.47,2.11,2.11,0,0,1,.18-.45.72.72,0,0,1,.35-.36.62.62,0,0,1,.5,0l.3.12.3.13.4.2a1.79,1.79,0,0,1,.38.22M29.09,21.09c0,.54,0,1.07,0,1.6v1.59c0,.69,0,1.39,0,2.1s0,1.4-.08,2.09v1.19c0,.56,0,1.11,0,1.63s0,1.07,0,1.63c0,.39,0,.77,0,1.16s0,.78-.05,1.19,0,.65,0,1,0,.64,0,1a1.09,1.09,0,0,1-.1.51.85.85,0,0,1-.45.29,5,5,0,0,1-.92.23,3.54,3.54,0,0,1-.92,0l-.48-.07-.49-.06a1.68,1.68,0,0,0-.27-.07.7.7,0,0,1-.32-.13.72.72,0,0,1-.26-.32,1.29,1.29,0,0,1-.12-.61,6.29,6.29,0,0,1,0-.81V34.64c0-.59,0-1.22,0-1.9s0-1.34,0-2,0-1.23,0-1.76,0-.93,0-1.21a9.91,9.91,0,0,0,0-1.09c0-.37,0-.73,0-1.1V22.77c0-.93,0-1.87,0-2.84V18.6c0-.45,0-.88,0-1.31a4.73,4.73,0,0,1,.16-1.16.82.82,0,0,1,.65-.55,3.44,3.44,0,0,1,1.11,0,5.26,5.26,0,0,1,1.05.32,1.19,1.19,0,0,1,.53.34,4.29,4.29,0,0,1,.37.5,2.24,2.24,0,0,1,.39,1.39c0,.1,0,.22.05.34a.94.94,0,0,0,.08.33c.06.39.1.77.13,1.15s0,.76,0,1.14M22.57,29c0,.13,0,.33,0,.61s0,.57-.05.87,0,.59,0,.86a5.24,5.24,0,0,0,0,.56,1.21,1.21,0,0,1,0,.19,1.52,1.52,0,0,0,0,.23v.16q0,.28,0,.39v.38c0,.2,0,.32,0,.37s0,.18,0,.38v1.16a2.8,2.8,0,0,1,0,.38v.78a3.36,3.36,0,0,1,0,.38,3,3,0,0,0,0,.39,3.68,3.68,0,0,1,0,.39,2.71,2.71,0,0,0-.05.38v.78a1.05,1.05,0,0,0,0,.24v.53a3,3,0,0,0,0-.39s0-.1,0-.14l-.06-2.79v.74q0,.3,0,.39v.39A1.51,1.51,0,0,1,22,38a1.52,1.52,0,0,0,0,.39v.42a2.74,2.74,0,0,1,0,.5,1.06,1.06,0,0,1-.18.4.44.44,0,0,1-.42.13l-.34.07-.37.06H19.21l-.37,0H18.5a1.38,1.38,0,0,1-.63-.21,1,1,0,0,1-.3-.36v.18s0-.07,0-.2,0,0,0,0a1.83,1.83,0,0,1-.15-.47,1,1,0,0,1,0-.35c0-.11,0-.22,0-.34a.48.48,0,0,1,0-.12h-.6l-.84,0a2.81,2.81,0,0,1-1.19-.32c-.37-.2-.74-.38-1.13-.55a1.05,1.05,0,0,1-.39-.31c-.1-.14-.21-.27-.32-.4a9.45,9.45,0,0,1-1.14-2.06A17.52,17.52,0,0,1,11,32.05a12.39,12.39,0,0,1-.34-2.4,21.9,21.9,0,0,1,.05-2.43c0-.43.08-.85.11-1.26A10.42,10.42,0,0,1,11,24.73c.15-.71.31-1.42.48-2.14a10.34,10.34,0,0,1,.75-2.08,11,11,0,0,1,.88-1.58,6.6,6.6,0,0,1,1.25-1.35,6.92,6.92,0,0,1,1.3-.94c.46-.25.94-.5,1.44-.74a2.68,2.68,0,0,1,.93-.29,8.91,8.91,0,0,1,1.29-.09,7,7,0,0,1,1.31.11,2.6,2.6,0,0,1,1,.37.92.92,0,0,1,.32.4,1.85,1.85,0,0,1,.17.86c0,.47,0,1,0,1.49s0,1-.05,1.47,0,1.06,0,1.58a.94.94,0,0,1-.07.39.72.72,0,0,1-.16.27c-.06.08-.18.09-.35.05a6.68,6.68,0,0,1-.91.08,9.29,9.29,0,0,1-1.06,0l-1.26-.06a.87.87,0,0,1-.26-.23,1.27,1.27,0,0,1-.14-.43,2.49,2.49,0,0,1,0-.76,1,1,0,0,0,0-.22.42.42,0,0,0-.11-.21.22.22,0,0,0-.23-.05.7.7,0,0,0-.33.22,5.11,5.11,0,0,0-.65.81,11.73,11.73,0,0,0-.69,1.24,6,6,0,0,0-.47,1.37,9.33,9.33,0,0,1-.26,1,7.7,7.7,0,0,0-.26,1,8.6,8.6,0,0,0-.24,1.9c0,.64,0,1.28-.05,1.9a9.55,9.55,0,0,0,.65,3.45,7.13,7.13,0,0,0,.68,1.25.59.59,0,0,0,.83.29,2.15,2.15,0,0,0,.67-.41,1.42,1.42,0,0,0,.37-.71A15,15,0,0,0,18,32.24V32a.22.22,0,0,1,0-.09.14.14,0,0,0,0-.07v-.61c0-.24,0-.46,0-.68s0-.43.07-.67a.08.08,0,0,1-.05-.1.17.17,0,0,0-.05-.14.48.48,0,0,0-.28-.15,2.79,2.79,0,0,0-.69-.06,1.09,1.09,0,0,1-.45-.15.65.65,0,0,1-.29-.37,1.07,1.07,0,0,1-.1-.24c0-.14-.08-.29-.13-.45s-.09-.32-.14-.49-.09-.28-.11-.37-.12-.34,0-.46a.81.81,0,0,1,.47-.25,7.37,7.37,0,0,1,1.61-.19,9.71,9.71,0,0,0,1.61-.13c.65-.06,1.29-.09,1.94-.09a1.1,1.1,0,0,1,.64.09.88.88,0,0,1,.31.29.86.86,0,0,1,.08.36v.29s0,.09,0,.22,0,.27,0,.42l0,.44c0,.14,0,.24,0,.3a1.28,1.28,0,0,1,0,.39M11.11,40.79a.8.8,0,0,1,.38-.76.34.34,0,0,1,.24,0,2.44,2.44,0,0,0,.76.11,2.46,2.46,0,0,1,.77.11l.39.2.37.22a.54.54,0,0,1,.24.41v.29c0,.13,0,.27,0,.41s0-.6,0-.47,0,.23,0,.29v1c0,.32,0,1.52,0,1.83s0,.38,0,.56a4.58,4.58,0,0,1,0,.53c0,.42-.06.84-.08,1.26s0,.83,0,1.25c0,.22,0,.41,0,.55s0,.28,0,.41,0,.28,0,.42,0,.33,0,.54a5.63,5.63,0,0,0,.07.87,6.32,6.32,0,0,0,.24.93,2.15,2.15,0,0,0,.43.74.81.81,0,0,0,.64.3.86.86,0,0,0,.65-.29,2.33,2.33,0,0,0,.43-.67,4.4,4.4,0,0,0,.23-.76,2.52,2.52,0,0,0,.08-.56,4.29,4.29,0,0,0,0-.47,3.11,3.11,0,0,0,0-.32c0-.1,0-.21,0-.33s0-.27,0-.47c0-.56,0-1.13,0-1.7s0-1.13,0-1.7c0-.38,0,.12-.06-.24a5.31,5.31,0,0,1,0-1.13c0-.25,0-.51,0-.76a4.09,4.09,0,0,0-.05-.78.73.73,0,0,1,0-.36c0-.12,0-.24.05-.36l.07-.2,0-.25a.64.64,0,0,1,.18-.3c.06,0,.17-.18.34-.13s.24-.14.41-.12,1.58-.3,2,.11c.12.13-.05.25,0,.43s0,1.28,0,1.45,0,.3,0,.37c0,.56,0,1.11,0,1.66,0,.19,0-.5,0-.31a5.17,5.17,0,0,0,0,.57l0,.71c0,.24,0,.48,0,.72l.06,1.2c0,.41,0,.82,0,1.23a1.7,1.7,0,0,0,0,.3s0,.08,0,.12v.43a12.28,12.28,0,0,1-.12,1.5,5.81,5.81,0,0,1-.54,1.86,4.33,4.33,0,0,1-1.32,1.59,3.94,3.94,0,0,1-2.41.67,3.7,3.7,0,0,1-2.9-1.24A4.12,4.12,0,0,1,11.75,53a9,9,0,0,1-.41-1.32,9.87,9.87,0,0,1-.18-1.21c0-.37,0-.66,0-.85s0-.44,0-.61,0-.34,0-.5v-1.1c0-.54,0-1.07,0-1.6s0-1.06.07-1.6c0-.21,0-.44,0-.7s0-1.41-.05-1.68,0,.35,0,.08,0-.51,0-.72a.81.81,0,0,0,0-.38M20,60.33h1.18a2,2,0,0,1,1.14.25A1.32,1.32,0,0,1,23,61.66a1.21,1.21,0,0,1-.55,1,1.31,1.31,0,0,1,.82,1.26,1.37,1.37,0,0,1-.61,1.15,2.37,2.37,0,0,1-1.38.27H20Zm3.47,0h.55l1.45,2.82L27,60.33h.55l-1.75,3.34v1.68h-.5V63.67Zm5.87,0h3.25V61H30.05v1.47h2.47V63H30.05v1.73h2.58v.58H29.38Zm3.32-5.17a.83.83,0,0,1-.08-.42,3,3,0,0,1,0-.56V53.15c0-.41,0-.85,0-1.32s0-.93,0-1.38,0-.85,0-1.22,0-.64,0-.84a4.82,4.82,0,0,0,0-.76c0-.25,0-.5,0-.76v-2c0-.65,0-1.3,0-2V42c0-.31,0-.61,0-.91a3.63,3.63,0,0,1,.11-.8.57.57,0,0,1,.45-.38,2.55,2.55,0,0,1,.78,0,3.3,3.3,0,0,1,.72.22.85.85,0,0,1,.37.24,2.78,2.78,0,0,1,.26.34,1.64,1.64,0,0,1,.27,1l0,.23a1.05,1.05,0,0,0,.06.24c0,.26.07.53.09.79s0,.52,0,.79,0,.74,0,1.11V46c0,.47,0,1,0,1.45s0,1-.05,1.45v.83c0,.39,0,.76,0,1.13s0,.74,0,1.13l0,.8,0,.83c0,.22,0,.45,0,.67s0,.45,0,.67a.78.78,0,0,1-.06.36.59.59,0,0,1-.32.2,2.91,2.91,0,0,1-.63.16,2.29,2.29,0,0,1-.64,0l-.34,0-.33,0-.19,0a.49.49,0,0,1-.4-.31m0,8.68h.69c0,.67.35,1,1.23,1a.89.89,0,0,0,1-.89c0-.59-.55-.74-1.18-.88-.8-.18-1.74-.4-1.74-1.52,0-1,.84-1.34,1.7-1.34,1.44,0,1.68.8,1.71,1.28h-.68c0-.26-.24-.7-1-.7-.5,0-1,.24-1,.71,0,.68.65.78,1.33,1s1.58.42,1.58,1.48-.8,1.48-1.74,1.48c-1.45,0-1.87-.77-1.89-1.59m3.76,0h.7c0,.67.34,1,1.22,1,.6,0,1-.32,1-.89s-.56-.74-1.18-.88c-.81-.18-1.74-.4-1.74-1.52,0-1,.84-1.34,1.69-1.34,1.45,0,1.68.8,1.72,1.28h-.69c0-.26-.23-.7-1-.7-.51,0-1,.24-1,.71,0,.68.65.78,1.34,1s1.57.42,1.57,1.48-.79,1.48-1.73,1.48c-1.45,0-1.88-.77-1.9-1.59m3.83-3.51h3.24V61H41v1.47h2.48V63H41v1.73h2.58v.58H40.34Zm3.48,0h.86L46.75,64V60.36h.63v5h-.62l-2.3-4v4h-.64Zm3.76,2.42c0-1.85.89-2.52,2.09-2.52a1.59,1.59,0,0,1,1.76,1.61h-.68a1,1,0,0,0-1.07-1c-.83,0-1.4.51-1.4,1.92s.56,2.11,1.41,2.11,1-.5,1.06-1.09h.68a1.61,1.61,0,0,1-1.75,1.67c-1.36,0-2.1-.85-2.1-2.68M51.63,55a6.92,6.92,0,0,1-.9.06,12,12,0,0,0-2.29.36l-.11,0a.24.24,0,0,0-.11.06.37.37,0,0,1-.2.14h-.23l-.57-.1-.57-.13a.57.57,0,0,1-.33-.14.62.62,0,0,1-.09-.39c0-.42,0-.83,0-1.24s0-.83,0-1.27V50c0-.32,0-.65,0-1v-.69c0-.36,0-.78,0-1.27s0-1,0-1.58,0-1.1,0-1.62,0-1,0-1.4v-.9c0-.15,0-.3,0-.45l0-.47c0-.37.24-.54.65-.49a1.66,1.66,0,0,0,.47,0,1.43,1.43,0,0,0,.47-.08.41.41,0,0,1,.19,0h.19c.45,0,.89,0,1.33,0s.88,0,1.31-.05l1.11,0,1.11-.07h.22a.32.32,0,0,1,.32.27,5.36,5.36,0,0,0,.1.6c0,.2.07.39.1.58a.91.91,0,0,1-.09.58,1.67,1.67,0,0,1-.38.47.92.92,0,0,1-.44.22l-.48.05a5.43,5.43,0,0,1-.57,0,4.93,4.93,0,0,0-.55,0c-.21,0-.42,0-.63,0l-.62,0a.56.56,0,0,0-.52.18.3.3,0,0,0-.09.23c0,.22,0,.43,0,.64v1.12l.68,0,.64,0,.88,0h.88a.9.9,0,0,1,.23,0,.94.94,0,0,1,.22.07.45.45,0,0,1,.25.44,4.62,4.62,0,0,0-.05.65,4.54,4.54,0,0,1,0,.65.8.8,0,0,1-.3.57,1.14,1.14,0,0,1-.64.21l-1.13.06L50,47.48h-.16a.36.36,0,0,0-.42.49c0,.25,0,.6,0,1s0,.89,0,1.34,0,.87,0,1.24,0,.61,0,.72a2.38,2.38,0,0,0,0,.33l.56,0,.54,0,.69-.06.69,0a3,3,0,0,1,.52-.05,4,4,0,0,0,.51-.06.41.41,0,0,1,.45.18.12.12,0,0,0,.08.06.14.14,0,0,1,.1,0,1.63,1.63,0,0,1,0,.49,2.87,2.87,0,0,1-.07.5,5.89,5.89,0,0,1-.33.8.78.78,0,0,1-.67.43c-.3,0-.6.06-.91.11m0,5.39h3.25V61H52.31v1.47h2.47V63H52.31v1.73h2.58v.58H51.64ZM74.88,37.44A37.44,37.44,0,1,0,37.44,74.88,37.44,37.44,0,0,0,74.88,37.44"/></g></g></svg>